<?xml version="1.0" encoding="UTF-8"?>
<svg version="1.1" xmlns="http://www.w3.org/2000/svg" width="1654" height="676">
<path d="M0 0 C1.98 0 3.96 0 6 0 C6.27038086 0.78721436 6.54076172 1.57442871 6.81933594 2.38549805 C16.43335173 30.24640005 27.41234475 57.33181395 40 84 C40.51175781 85.09054688 41.02351563 86.18109375 41.55078125 87.3046875 C48.02199667 101.06586093 54.78681974 114.58556289 62.171875 127.87890625 C64.84437773 132.68959198 67.40132306 137.55396124 69.9375 142.4375 C76.24757097 154.52915604 83.06049959 166.33961282 89.81689453 178.18554688 C108.89853614 211.68836027 125.95438899 246.33234107 116.0703125 285.91796875 C108.8532788 312.22417054 89.03752877 339.42840109 65.3125 353.25 C34.94100952 370.15667029 -2.75880103 372.20325831 -35.875 362.8125 C-62.3813107 354.72609528 -83.90383806 336.51485617 -96.94335938 312.13330078 C-110.90275212 283.95003511 -112.79005845 251.89459591 -102.79345703 222.20751953 C-100.30322832 215.27932015 -97.17409855 208.6354898 -94 202 C-93.44916748 200.83476807 -93.44916748 200.83476807 -92.88720703 199.64599609 C-86.06278087 185.28853253 -78.11121759 171.65984921 -70 158 C-40.24016536 107.73711907 -16.39514842 56.1016181 0 0 Z M4 69 C0.80327573 75.29525564 -2.35746549 81.60161028 -5.3515625 87.99609375 C-15.38202762 109.38626922 -26.57304454 130.14008572 -38.2746582 150.65795898 C-43.25468784 159.39903284 -48.04349814 168.23801751 -52.80859375 177.09765625 C-54.87489107 180.93542478 -56.96978789 184.75463233 -59.09765625 188.55859375 C-76.09397434 219.02610803 -91.04951835 249.48490911 -82 285 C-75.94048472 305.4441067 -62.11915888 322.40075812 -43.6484375 332.90625 C-19.0352688 345.78586821 8.70286508 347.5782597 35.13378906 339.33447266 C56.48774368 332.07782574 75.08879857 318.39980353 85.375 298.0625 C95.44272467 277.31576059 97.38092662 253.94985049 90 232 C82.58594225 210.92846745 69.53125859 191.20381 58.22485352 172.03369141 C52.39918389 162.09476349 46.99901549 151.94032019 41.6015625 141.765625 C38.85920699 136.59616082 36.06788683 131.45680272 33.2421875 126.33251953 C22.93460349 107.6297861 13.68149449 88.50699024 5 69 C4.67 69 4.34 69 4 69 Z " fill="#1A9AD2" transform="translate(1234,79)"/>
<path d="M0 0 C20.38676439 17.76302401 28.35884002 42.80849691 31 69 C31 73.95 31 78.9 31 84 C-23.12 84 -77.24 84 -133 84 C-129.9293169 116.59008452 -129.9293169 116.59008452 -111.703125 142.08984375 C-94.09128933 154.53520161 -74.56460642 158.84115371 -53.2734375 156.609375 C-39.91811235 154.21462704 -24.97529288 147.55434535 -16.79296875 136.34667969 C-13.17789754 131.12273391 -9.71901133 125.7512072 -7 120 C4.50645635 120.48550449 15.71684584 122.83282717 27 125 C25.42669514 137.85505187 16.82246218 147.26355068 8 156 C7.21882812 156.80308594 6.43765625 157.60617187 5.6328125 158.43359375 C-8.31778506 171.98493179 -28.10831707 179.81317485 -47 183 C-48.00417969 183.18433594 -49.00835937 183.36867188 -50.04296875 183.55859375 C-82.35267059 187.16273621 -112.80461843 181.93895964 -138.6875 161.6875 C-159.90817873 143.6083441 -170.67042728 119.57950484 -173 92 C-174.62947327 62.69784717 -168.55832372 34.54758717 -149 12 C-148.236875 10.989375 -147.47375 9.97875 -146.6875 8.9375 C-110.7590031 -30.33318265 -40.29397698 -34.76228939 0 0 Z M-117.29296875 23.63671875 C-125.27040049 34.12861303 -131 46.61028554 -131 60 C-90.41 60 -49.82 60 -8 60 C-10.3135987 41.49121043 -13.64011784 25.85505686 -28.47265625 13.6953125 C-31.83978267 11.43668365 -35.3311881 9.53531745 -38.9375 7.6875 C-39.59363281 7.34952393 -40.24976563 7.01154785 -40.92578125 6.66333008 C-66.20121681 -5.66531308 -99.24904399 2.88774224 -117.29296875 23.63671875 Z " fill="#1A9AD2" transform="translate(474,252)"/>
<path d="M0 0 C13.99864313 12.68469896 19.84838992 26.29029682 21.25073242 45.04150391 C21.38561645 49.63580757 21.37729547 54.22700333 21.36425781 58.82299805 C21.36397523 60.19376625 21.36413505 61.56453461 21.36470032 62.93530273 C21.36498553 66.63094639 21.35913358 70.32655714 21.35212636 74.02219319 C21.34584672 77.89389835 21.34528539 81.76560438 21.34410095 85.63731384 C21.34100118 92.95750178 21.33280613 100.27767466 21.32275146 107.59785599 C21.31154816 115.93647712 21.30606927 124.27509899 21.30105603 132.61372578 C21.29062231 149.75632867 21.27229376 166.89891085 21.25073242 184.04150391 C10.36073242 184.04150391 -0.52926758 184.04150391 -11.74926758 184.04150391 C-11.76908691 180.14120361 -11.78890625 176.24090332 -11.80932617 172.22241211 C-11.87636504 159.30629193 -11.9539055 146.39025246 -12.03679466 133.47422504 C-12.08677407 125.64665464 -12.13321779 117.81909394 -12.17114258 109.99145508 C-12.20423275 103.16357186 -12.24415595 96.3357674 -12.29205763 89.50797147 C-12.31715469 85.89753846 -12.33898402 82.28715656 -12.35261154 78.67666054 C-12.36800685 74.63190142 -12.3986673 70.58738844 -12.43041992 66.54272461 C-12.43258011 65.36451645 -12.4347403 64.18630829 -12.43696594 62.97239685 C-12.58461011 48.15803284 -13.87743079 33.04145884 -24.62817383 21.97509766 C-34.13537373 13.30831322 -47.03853606 9.91581064 -59.74926758 10.04150391 C-74.322932 10.92000252 -88.96712484 14.92638893 -99.39770508 25.75244141 C-100.74926758 27.04150391 -100.74926758 27.04150391 -102.74926758 27.04150391 C-103.02125977 27.62673828 -103.29325195 28.21197266 -103.57348633 28.81494141 C-104.72893245 31.00299553 -106.01172772 32.74429089 -107.56176758 34.66650391 C-120.6658443 52.07483941 -120.35185002 71.78705149 -120.35864258 92.63525391 C-120.37364775 95.28042243 -120.39018896 97.92553735 -120.40875244 100.57067871 C-120.44900119 106.77856294 -120.46957898 112.98634299 -120.48272634 119.19433737 C-120.49870318 126.27326345 -120.53716236 133.35201484 -120.57731962 140.43083858 C-120.65929147 154.96767745 -120.71068314 169.50448313 -120.74926758 184.04150391 C-132.62926758 184.04150391 -144.50926758 184.04150391 -156.74926758 184.04150391 C-156.74926758 119.36150391 -156.74926758 54.68150391 -156.74926758 -11.95849609 C-145.85926758 -11.95849609 -134.96926758 -11.95849609 -123.74926758 -11.95849609 C-123.41926758 -1.06849609 -123.08926758 9.82150391 -122.74926758 21.04150391 C-119.44926758 16.75150391 -116.14926758 12.46150391 -112.74926758 8.04150391 C-83.27089614 -21.43686753 -33.02122557 -28.75435228 0 0 Z " fill="#1A9AD2" transform="translate(688.749267578125,246.95849609375)"/>
<path d="M0 0 C13.2 0 26.4 0 40 0 C50.81736009 26.98262854 61.57835555 53.98695666 72.27587891 81.01733398 C77.12273081 93.25864155 81.99174415 105.49037483 86.91015625 117.703125 C87.3803418 118.87208817 87.85052734 120.04105133 88.33496094 121.24543762 C90.56989976 126.80178459 92.80950646 132.35614939 95.05810547 137.90698242 C95.85016778 139.87409244 96.6420103 141.84129098 97.43359375 143.80859375 C97.79800064 144.70253845 98.16240753 145.59648315 98.53785706 146.51751709 C98.86495163 147.33343323 99.1920462 148.14934937 99.52905273 148.98999023 C99.81497787 149.69663315 100.10090302 150.40327606 100.39549255 151.1313324 C101 153 101 153 101 156 C101.66 156 102.32 156 103 156 C103.14900757 154.77410156 103.14900757 154.77410156 103.30102539 153.5234375 C104.13671802 149.31082275 105.57454465 145.59403489 107.18359375 141.625 C107.51025024 140.80496994 107.83690674 139.98493988 108.17346191 139.14006042 C108.88305829 137.36051603 109.59535018 135.58204462 110.31002808 133.80453491 C111.8568296 129.95693677 113.3903145 126.10407417 114.92469788 122.25151062 C115.73143926 120.22627317 116.53885355 118.20130365 117.34690857 116.17658997 C121.59305961 105.53278432 125.76875423 94.86180547 129.9375 84.1875 C130.68115587 82.28504443 131.42488985 80.3826194 132.16870117 78.48022461 C133.67324303 74.63182604 135.17738835 70.7832729 136.68115234 66.93457031 C140.31075138 57.64509725 143.94198937 48.35626568 147.57473755 39.06802368 C148.71300201 36.15711574 149.85054785 33.24592773 150.98803711 30.3347168 C151.69511606 28.52651678 152.40222708 26.7183293 153.109375 24.91015625 C153.41494827 24.12752411 153.72052155 23.34489197 154.03535461 22.5385437 C156.98186227 15.00835629 159.99655118 7.50862205 163 0 C173.89 0 184.78 0 196 0 C191.1975504 12.96291271 186.14572219 25.81523947 181.02734375 38.65625 C180.14986861 40.86081842 179.27250106 43.06542967 178.39523315 45.27008057 C176.05966669 51.13804372 173.72186607 57.00511421 171.38342667 62.87193298 C169.93493692 66.50643119 168.48707514 70.14117895 167.03939819 73.77600098 C150.79552779 114.55888223 134.45254943 155.30088824 118 196 C105.46 196 92.92 196 80 196 C78.82566406 193.15503906 77.65132812 190.31007813 76.44140625 187.37890625 C66.34608385 162.92539386 56.2313961 138.48002249 46.09277344 114.04443359 C42.91469427 106.38447172 39.738741 98.72362837 36.56259155 91.06286621 C35.50508468 88.51226375 34.44750226 85.96169264 33.38989258 83.41113281 C30.13709838 75.56656516 26.88456114 67.72189132 23.63310242 59.87677002 C22.51064846 57.16861077 21.38801748 54.46052494 20.26538086 51.75244141 C18.81614415 48.25636601 17.36781899 44.75991505 15.92016602 41.26318359 C12.87055834 33.89991955 9.81420842 26.5400503 6.7109375 19.19921875 C6.23390381 18.06750244 5.75687012 16.93578613 5.26538086 15.76977539 C4.41146044 13.74746449 3.5532477 11.72695779 2.68969727 9.70874023 C2.32674561 8.84837158 1.96379395 7.98800293 1.58984375 7.1015625 C1.27909912 6.37275879 0.96835449 5.64395508 0.64819336 4.89306641 C0 3 0 3 0 0 Z " fill="#1A9AD2" transform="translate(715,235)"/>
<path d="M0 0 C0 9.9 0 19.8 0 30 C-3.96 30.12375 -3.96 30.12375 -8 30.25 C-29.33185604 31.28017636 -45.65613214 38.52978293 -60.09765625 54.2890625 C-75.18078249 72.5214129 -75.60138024 94.30264015 -75.609375 116.8203125 C-75.62438876 119.26082437 -75.64112249 121.70132621 -75.65948486 124.14181519 C-75.70281163 130.50380979 -75.72307996 136.86566743 -75.73822021 143.2277832 C-75.75791739 149.74438461 -75.79987247 156.26084075 -75.83984375 162.77734375 C-75.91476971 175.51820858 -75.96322568 188.25896789 -76 201 C-87.88 201 -99.76 201 -112 201 C-112 136.32 -112 71.64 -112 5 C-101.44 5 -90.88 5 -80 5 C-79.505 24.8 -79.505 24.8 -79 45 C-76.03 40.05 -73.06 35.1 -70 30 C-67.37374464 26.57444954 -64.78215573 23.27662881 -62 20 C-61.33613281 19.14535156 -60.67226562 18.29070312 -59.98828125 17.41015625 C-46.66852357 1.26420244 -19.86181523 -4.96545381 0 0 Z " fill="#1A9AD2" transform="translate(1117,230)"/>
<path d="M0 0 C11.88 0 23.76 0 36 0 C36 64.68 36 129.36 36 196 C24.12 196 12.24 196 0 196 C0 131.32 0 66.64 0 0 Z " fill="#1A9AD2" transform="translate(925,235)"/>
<path d="M0 0 C0.66 0.33 1.32 0.66 2 1 C2.50336024 3.59046367 2.89809439 6.1380723 3.25 8.75 C7.24572934 34.7693725 16.89274244 63.71623826 38 81 C45.19537707 86.20967611 52.99747918 90.18728066 61 94 C61 94.33 61 94.66 61 95 C39.8072211 94.34690974 18.89912161 88.05501904 3.88671875 72.43359375 C-4.12389558 62.10106222 -7.39652619 50.43629546 -7.375 37.5625 C-7.37411377 36.60255127 -7.37322754 35.64260254 -7.37231445 34.65356445 C-7.17426279 22.53622095 -4.12774506 11.35129891 0 0 Z " fill="#1A9AD2" transform="translate(1177,312)"/>
<path d="M0 0 C0.66 0.66 1.32 1.32 2 2 C2.33 0.68 2.66 -0.64 3 -2 C5.97 -2 8.94 -2 12 -2 C12.07445886 4.26218093 12.12874818 10.52410102 12.16479492 16.78662109 C12.17983076 18.91459648 12.20026483 21.04254114 12.22631836 23.17041016 C12.26293089 26.23868417 12.27977881 29.30654649 12.29296875 32.375 C12.30845261 33.31802979 12.32393646 34.26105957 12.33988953 35.23266602 C12.34158144 41.95520479 11.57520708 47.77385366 7.23828125 53.20703125 C-0.21148772 59.41769057 -6.24988447 61.64806724 -16.0390625 61.33984375 C-23.8193117 60.44686 -28.75466796 57.05933405 -33.625 51.0390625 C-35.34913122 48.48225427 -36.32423267 46.00341036 -37 43 C-33.92740479 42.64546978 -31.05861999 42.47429969 -28 43 C-25.75 45.8125 -25.75 45.8125 -24 49 C-19.88150012 52.41247133 -15.24092533 53.15282287 -10 53 C-5.2983982 51.53556665 -2.16871413 49.77808223 1 46 C2.20272819 43.59454362 2.10071472 42.05003047 2.0625 39.375 C2.05347656 38.55773437 2.04445313 37.74046875 2.03515625 36.8984375 C2.02355469 36.27195312 2.01195312 35.64546875 2 35 C0.989375 35.66 -0.02125 36.32 -1.0625 37 C-7.36568362 40.13473838 -14.1474428 39.85563146 -21 39 C-26.99450322 36.91254587 -31.46208778 32.16608636 -35 27 C-36.8270828 21.51875161 -37.1132125 15.13676233 -35.1640625 9.64453125 C-32.06708588 4.27158859 -27.04922063 -0.63926394 -21.08203125 -2.64453125 C-13.51954787 -3.93568695 -6.91100692 -3.26702146 0 0 Z M-25.4375 10.625 C-28.06269162 14.61529126 -28.33186769 16.90340961 -27.77734375 21.60546875 C-26.34649168 26.01306834 -22.77643511 28.53135759 -19 31 C-14.01920617 32.66026461 -9.69726371 32.59903425 -4.8125 30.875 C-0.85122053 28.23414702 2.44385465 25.69851396 3.44921875 20.8203125 C3.71145114 15.44906982 2.63286217 12.12378949 -1 8 C-9.00227864 1.36954055 -18.76910956 3.44365644 -25.4375 10.625 Z " fill="#D9803E" transform="translate(1046,469)"/>
<path d="M0 0 C12.54 0 25.08 0 38 0 C38 11.55 38 23.1 38 35 C25.46 35 12.92 35 0 35 C0 23.45 0 11.9 0 0 Z " fill="#1A9AD2" transform="translate(924,166)"/>
<path d="M0 0 C4.63528214 3.27366801 8.25604401 6.46037511 10 12 C10.63105734 18.45278355 11.01128171 24.60984021 7 30 C0.84645897 36.15354103 -3.35474027 39.28496701 -12.25 39.375 C-13.51328125 39.40335937 -14.7765625 39.43171875 -16.078125 39.4609375 C-20 39 -20 39 -28 35 C-28.33 43.58 -28.66 52.16 -29 61 C-31.97 61 -34.94 61 -38 61 C-38 40.21 -38 19.42 -38 -2 C-35.03 -2 -32.06 -2 -29 -2 C-28.67 -0.68 -28.34 0.64 -28 2 C-27.0925 1.360625 -26.185 0.72125 -25.25 0.0625 C-17.6752868 -4.74452953 -7.70521998 -4.44531922 0 0 Z M-25.875 9.5625 C-28.92029715 13.05563497 -29.34444638 15.23536364 -29.28515625 19.90234375 C-28.69903493 24.21394851 -26.10208184 27.03150384 -22.9375 29.8125 C-18.53894996 32.50838551 -14.00163183 32.7110559 -9 32 C-4.56193335 30.22170732 -1.68969731 28.01299292 1 24.0625 C2.10418836 20.68092314 2.51428759 18.52654346 2 15 C-0.48312911 10.22475172 -3.22807672 7.47772939 -8 5 C-15.09678186 2.88975529 -20.32400311 4.61487234 -25.875 9.5625 Z " fill="#D9803E" transform="translate(1230,469)"/>
<path d="M0 0 C0.66 0 1.32 0 2 0 C6.29 9.57 10.58 19.14 15 29 C17.4638571 25.7148572 18.90095039 23.27050559 20.48046875 19.578125 C20.92197266 18.55332031 21.36347656 17.52851563 21.81835938 16.47265625 C22.27017578 15.40917969 22.72199219 14.34570312 23.1875 13.25 C23.88262695 11.63158203 23.88262695 11.63158203 24.59179688 9.98046875 C25.73267942 7.32233003 26.86854872 4.66216363 28 2 C31.3 2 34.6 2 38 2 C36.70765547 6.13122144 35.15870001 9.91966283 33.20703125 13.78125 C32.38948364 15.40667725 32.38948364 15.40667725 31.55541992 17.06494141 C30.98025635 18.19851074 30.40509277 19.33208008 29.8125 20.5 C28.93718628 22.23709229 28.93718628 22.23709229 28.04418945 24.00927734 C26.88938293 26.30089926 25.7330919 28.5917738 24.57519531 30.88183594 C22.600751 34.79032985 20.64197634 38.70649517 18.6875 42.625 C17.79166667 44.41666667 16.89583333 46.20833333 16 48 C13.43369236 44.84454002 11.76662771 41.61711886 10.08203125 37.921875 C9.55029297 36.76171875 9.01855469 35.6015625 8.47070312 34.40625 C7.91786424 33.1875474 7.36513119 31.96879679 6.8125 30.75 C6.24848769 29.51542352 5.68403902 28.28104629 5.11914062 27.046875 C3.74178886 24.03318224 2.3689229 21.01752846 1 18 C-4.03942771 27.8574762 -8.65041052 37.82010973 -13 48 C-15.32637258 45.8642625 -16.76317283 43.85216213 -18.17651367 41.03515625 C-18.57670212 40.24423584 -18.97689056 39.45331543 -19.38920593 38.63842773 C-19.81119766 37.78837158 -20.23318939 36.93831543 -20.66796875 36.0625 C-21.32748283 34.7477771 -21.32748283 34.7477771 -22.00032043 33.40649414 C-22.92691286 31.55534863 -23.85048303 29.70268766 -24.77124023 27.84863281 C-26.18426596 25.00650487 -27.60998623 22.17100797 -29.03710938 19.3359375 C-29.93566579 17.53684268 -30.83347782 15.73737585 -31.73046875 13.9375 C-32.15853317 13.08744385 -32.5865976 12.2373877 -33.02763367 11.36157227 C-33.41836563 10.57065186 -33.8090976 9.77973145 -34.21166992 8.96484375 C-34.55791916 8.2699585 -34.9041684 7.57507324 -35.26091003 6.85913086 C-36 5 -36 5 -36 2 C-33.03 2 -30.06 2 -27 2 C-25.28616417 5.66393183 -23.57730161 9.33013651 -21.87304688 12.99853516 C-21.29238479 14.24656893 -20.71035931 15.49396929 -20.12695312 16.74072266 C-19.28939753 18.5312114 -18.45712034 20.3241663 -17.625 22.1171875 C-16.87089844 23.73536377 -16.87089844 23.73536377 -16.1015625 25.38623047 C-15 28 -15 28 -15 30 C-14.34 30 -13.68 30 -13 30 C-12.83709473 29.47212891 -12.67418945 28.94425781 -12.50634766 28.40039062 C-10.53439756 22.23083132 -8.06651536 16.38660457 -5.375 10.5 C-4.96765625 9.59507812 -4.5603125 8.69015625 -4.140625 7.7578125 C-1.13955185 1.13955185 -1.13955185 1.13955185 0 0 Z " fill="#D9803E" transform="translate(451,465)"/>
<path d="M0 0 C0.96977783 0.04390869 1.93955566 0.08781738 2.9387207 0.13305664 C6 1 6 1 7.78271484 3.59204102 C8.25402832 4.71795654 8.7253418 5.84387207 9.2109375 7.00390625 C9.46880035 7.60178452 9.72666321 8.19966278 9.99234009 8.81565857 C10.8088721 10.72268955 11.59198643 12.6414971 12.375 14.5625 C12.92363227 15.85963499 13.47439043 17.155873 14.02734375 18.45117188 C15.37276699 21.62589864 16.69569215 24.80821124 18 28 C18.35827881 27.21761963 18.71655762 26.43523926 19.08569336 25.62915039 C20.41269586 22.73412676 21.7416772 19.84002253 23.07202148 16.9465332 C23.64801617 15.69266833 24.22321447 14.43843732 24.79760742 13.18383789 C25.62210289 11.38332189 26.44967686 9.58421661 27.27734375 7.78515625 C27.77484131 6.70113525 28.27233887 5.61711426 28.78491211 4.50024414 C30 2 30 2 31 1 C32.51928038 0.92820036 34.04167482 0.91607993 35.5625 0.9375 C36.38878906 0.94652344 37.21507812 0.95554687 38.06640625 0.96484375 C38.70449219 0.97644531 39.34257813 0.98804688 40 1 C35.94232408 10.63513591 31.6057849 20.14057197 27.12582397 29.58602905 C26.54169964 30.82085394 25.9611517 32.05737694 25.38418579 33.29556274 C24.56313119 35.05467126 23.72715603 36.80679203 22.890625 38.55859375 C22.40625977 39.58267334 21.92189453 40.60675293 21.42285156 41.66186523 C20 44 20 44 17 45 C14.71635949 40.33933873 12.43783351 35.67622642 10.1640625 31.01074219 C9.3894317 29.42313895 8.61339456 27.83622112 7.8359375 26.25 C6.72027239 23.97313242 5.60964724 21.69386775 4.5 19.4140625 C4.15001953 18.70255035 3.80003906 17.99103821 3.43945312 17.25796509 C1 12.22774341 1 12.22774341 1 10 C-4.55006322 8.86407905 -4.55006322 8.86407905 -9.875 10.1875 C-12.88616201 12.75584407 -13.86183252 14.80875508 -14.31884766 18.74902344 C-14.35026855 19.77543945 -14.38168945 20.80185547 -14.4140625 21.859375 C-14.47207031 23.53193359 -14.47207031 23.53193359 -14.53125 25.23828125 C-14.57765625 26.97658203 -14.57765625 26.97658203 -14.625 28.75 C-14.68300781 30.51150391 -14.68300781 30.51150391 -14.7421875 32.30859375 C-14.8363982 35.20557268 -14.92201602 38.10254626 -15 41 C-17.97 41 -20.94 41 -24 41 C-24 27.8 -24 14.6 -24 1 C-21.03 1 -18.06 1 -15 1 C-14.67 1.99 -14.34 2.98 -14 4 C-13.566875 3.525625 -13.13375 3.05125 -12.6875 2.5625 C-9.10416372 -0.75540396 -4.59489548 -0.27360148 0 0 Z " fill="#D9803E" transform="translate(794,466)"/>
<path d="M0 0 C4.34575379 3.15829924 6.64588243 6.67067112 9.05859375 11.49609375 C9.05859375 14.46609375 9.05859375 17.43609375 9.05859375 20.49609375 C-3.81140625 20.82609375 -16.68140625 21.15609375 -29.94140625 21.49609375 C-26.88633369 26.84989944 -26.88633369 26.84989944 -21.94140625 29.49609375 C-15.57734443 31.02127408 -11.13498231 30.78253792 -5.4375 27.50390625 C-3.95850985 26.57699816 -3.95850985 26.57699816 -2.94140625 25.49609375 C-1.25531659 25.42403864 0.43360034 25.41223307 2.12109375 25.43359375 C3.04019531 25.44261719 3.95929687 25.45164062 4.90625 25.4609375 C5.61652344 25.47253906 6.32679688 25.48414063 7.05859375 25.49609375 C5.9110736 30.37305437 3.07568684 32.342364 -0.7734375 35.1640625 C-7.5375829 39.32005094 -14.18404688 39.17777494 -21.94140625 38.49609375 C-28.68165761 36.84803815 -33.73707044 32.95456383 -37.94140625 27.49609375 C-40.58022753 22.10371983 -40.94885772 16.65538331 -39.13671875 10.97265625 C-36.26071643 4.36776816 -32.41300747 0.63348897 -25.94140625 -2.50390625 C-17.45207285 -5.36927874 -7.66798597 -4.44466182 0 0 Z M-26.94140625 7.49609375 C-28.26140625 9.80609375 -29.58140625 12.11609375 -30.94140625 14.49609375 C-20.71140625 14.49609375 -10.48140625 14.49609375 0.05859375 14.49609375 C-2.18863054 8.87803303 -4.083101 7.00046493 -9.31640625 4.24609375 C-15.70712867 2.42017306 -21.76712152 3.23931105 -26.94140625 7.49609375 Z " fill="#D9803E" transform="translate(938.94140625,469.50390625)"/>
<path d="M0 0 C4.34575379 3.15829924 6.64588243 6.67067112 9.05859375 11.49609375 C9.05859375 14.46609375 9.05859375 17.43609375 9.05859375 20.49609375 C-3.81140625 20.82609375 -16.68140625 21.15609375 -29.94140625 21.49609375 C-26.88633369 26.84989944 -26.88633369 26.84989944 -21.94140625 29.49609375 C-15.57734443 31.02127408 -11.13498231 30.78253792 -5.4375 27.50390625 C-3.95850985 26.57699816 -3.95850985 26.57699816 -2.94140625 25.49609375 C-1.25531659 25.42403864 0.43360034 25.41223307 2.12109375 25.43359375 C3.04019531 25.44261719 3.95929687 25.45164062 4.90625 25.4609375 C5.61652344 25.47253906 6.32679688 25.48414063 7.05859375 25.49609375 C5.9110736 30.37305437 3.07568684 32.342364 -0.7734375 35.1640625 C-7.5375829 39.32005094 -14.18404688 39.17777494 -21.94140625 38.49609375 C-28.68165761 36.84803815 -33.73707044 32.95456383 -37.94140625 27.49609375 C-40.58022753 22.10371983 -40.94885772 16.65538331 -39.13671875 10.97265625 C-36.26071643 4.36776816 -32.41300747 0.63348897 -25.94140625 -2.50390625 C-17.45207285 -5.36927874 -7.66798597 -4.44466182 0 0 Z M-26.94140625 7.49609375 C-28.26140625 9.80609375 -29.58140625 12.11609375 -30.94140625 14.49609375 C-20.71140625 14.49609375 -10.48140625 14.49609375 0.05859375 14.49609375 C-2.18863054 8.87803303 -4.083101 7.00046493 -9.31640625 4.24609375 C-15.70712867 2.42017306 -21.76712152 3.23931105 -26.94140625 7.49609375 Z " fill="#D9803E" transform="translate(755.94140625,469.50390625)"/>
<path d="M0 0 C4.34575379 3.15829924 6.64588243 6.67067112 9.05859375 11.49609375 C9.05859375 14.46609375 9.05859375 17.43609375 9.05859375 20.49609375 C-3.81140625 20.82609375 -16.68140625 21.15609375 -29.94140625 21.49609375 C-26.88633369 26.84989944 -26.88633369 26.84989944 -21.94140625 29.49609375 C-15.57734443 31.02127408 -11.13498231 30.78253792 -5.4375 27.50390625 C-3.95850985 26.57699816 -3.95850985 26.57699816 -2.94140625 25.49609375 C-1.25531659 25.42403864 0.43360034 25.41223307 2.12109375 25.43359375 C3.04019531 25.44261719 3.95929687 25.45164062 4.90625 25.4609375 C5.61652344 25.47253906 6.32679688 25.48414063 7.05859375 25.49609375 C5.9110736 30.37305437 3.07568684 32.342364 -0.7734375 35.1640625 C-7.5375829 39.32005094 -14.18404688 39.17777494 -21.94140625 38.49609375 C-28.68165761 36.84803815 -33.73707044 32.95456383 -37.94140625 27.49609375 C-40.58022753 22.10371983 -40.94885772 16.65538331 -39.13671875 10.97265625 C-36.26071643 4.36776816 -32.41300747 0.63348897 -25.94140625 -2.50390625 C-17.45207285 -5.36927874 -7.66798597 -4.44466182 0 0 Z M-26.94140625 7.49609375 C-28.26140625 9.80609375 -29.58140625 12.11609375 -30.94140625 14.49609375 C-20.71140625 14.49609375 -10.48140625 14.49609375 0.05859375 14.49609375 C-2.18863054 8.87803303 -4.083101 7.00046493 -9.31640625 4.24609375 C-15.70712867 2.42017306 -21.76712152 3.23931105 -26.94140625 7.49609375 Z " fill="#D9803E" transform="translate(646.94140625,469.50390625)"/>
<path d="M0 0 C2.40035367 1.2052985 4.71338487 2.4648388 6.99609375 3.87890625 C7.32609375 2.55890625 7.65609375 1.23890625 7.99609375 -0.12109375 C10.63609375 -0.12109375 13.27609375 -0.12109375 15.99609375 -0.12109375 C15.99609375 13.07890625 15.99609375 26.27890625 15.99609375 39.87890625 C13.35609375 39.87890625 10.71609375 39.87890625 7.99609375 39.87890625 C7.50109375 37.89890625 7.50109375 37.89890625 6.99609375 35.87890625 C6.06796875 36.51828125 5.13984375 37.15765625 4.18359375 37.81640625 C-2.1409803 41.90877769 -8.67528999 41.4482771 -16.00390625 40.87890625 C-22.26304673 39.24779586 -26.47845166 35.17868503 -30.00390625 29.87890625 C-32.49765166 24.55135925 -32.90197664 19.22677626 -31.38671875 13.578125 C-28.74164025 6.61431214 -24.24597656 2.88248995 -17.60546875 -0.25390625 C-11.86565749 -2.16717667 -5.66313144 -2.1135484 0 0 Z M-20.44140625 11.44140625 C-23.32224065 15.93550791 -23.92109347 19.58344796 -23.00390625 24.87890625 C-20.92083525 28.5976773 -18.25590756 31.12111599 -14.62890625 33.31640625 C-9.60958144 34.39197585 -5.61278444 34.44674561 -0.81640625 32.75390625 C3.77309644 29.69423779 6.46783124 26.72782502 7.99609375 21.37890625 C7.99609375 17.25300949 7.27640277 15.29936977 4.99609375 11.87890625 C1.30688334 8.38386481 -2.24924818 6.25115734 -7.31640625 5.56640625 C-12.5844226 6.17896629 -16.74998496 7.56068131 -20.44140625 11.44140625 Z " fill="#D9803E" transform="translate(520.00390625,467.12109375)"/>
<path d="M0 0 C4.41569272 3.2007488 7.71487808 7.11732483 9.05859375 12.4921875 C9.82220744 19.27072748 9.30048782 24.97061589 5.05859375 30.4921875 C-1.99849166 37.2489714 -9.05608338 38.98705438 -18.6875 38.80078125 C-26.1995947 38.0883497 -31.51690857 34.78269886 -36.56640625 29.27734375 C-39.68603024 25.2271501 -40.48326026 20.76845366 -40.30859375 15.703125 C-39.38437922 10.13817369 -36.99045476 5.29695442 -32.74609375 1.55859375 C-22.93514534 -5.19250441 -10.48355039 -6.09388643 0 0 Z M-29.44140625 9.6796875 C-31.57447258 13.67918688 -31.71634079 17.05392605 -30.94140625 21.4921875 C-28.73428183 25.90643634 -26.52128663 28.60049778 -21.94140625 30.4921875 C-15.82413904 31.95018901 -11.11718415 31.96896108 -5.6328125 28.72265625 C-1.83477019 25.95964626 -0.23664952 23.57474615 0.99609375 19.0546875 C1.06959796 14.86494746 0.37209119 12.96243366 -1.94140625 9.4921875 C-6.04169911 5.60769953 -9.6509766 3.75148142 -15.25390625 3.1171875 C-21.03781928 3.70538205 -25.09388961 5.87561044 -29.44140625 9.6796875 Z " fill="#D9803E" transform="translate(1129.94140625,469.5078125)"/>
<path d="M0 0 C2.27577007 2.20883566 3.7372053 4.21386877 5.125 7.0625 C5.125 8.0525 5.125 9.0425 5.125 10.0625 C2.07043492 10.36196716 -0.82870295 10.48816104 -3.875 10.0625 C-6.6875 7.6875 -6.6875 7.6875 -8.875 5.0625 C-13.29754637 2.30901697 -17.82081185 2.40777105 -22.875 3.0625 C-26.72850036 5.024282 -29.91656444 7.14562888 -31.875 11.0625 C-32.40824215 15.78550188 -32.3417958 18.0728929 -30.3125 22.375 C-27.29568682 25.70122992 -25.20538318 26.8556719 -20.875 28.0625 C-14.72171699 28.31978013 -10.63895726 26.87366581 -5.875 23.0625 C-5.38 22.5675 -5.38 22.5675 -4.875 22.0625 C-3.18891034 21.99044489 -1.49999341 21.97863932 0.1875 22 C1.10660156 22.00902344 2.02570312 22.01804687 2.97265625 22.02734375 C3.68292969 22.03894531 4.39320313 22.05054688 5.125 22.0625 C2.95784086 27.41665788 -0.05870515 30.95762643 -4.875 34.0625 C-12.12748833 37.01796465 -20.25564896 37.39025464 -27.796875 35.22265625 C-33.73312039 32.55134582 -37.77988352 28.80731029 -40.875 23.0625 C-42.59640333 17.59013756 -42.69261227 12.25801904 -40.375 7 C-37.18414628 1.28352354 -32.54000426 -2.78098872 -26.5625 -5.375 C-16.13803065 -6.96517329 -8.78703688 -5.92169876 0 0 Z " fill="#D9803E" transform="translate(892.875,471.9375)"/>
<path d="M0 0 C2.27991332 1.77136123 3.46895045 3.55493195 4.55859375 6.2109375 C4.55859375 7.2009375 4.55859375 8.1909375 4.55859375 9.2109375 C1.52650253 9.43977457 -1.41709898 9.5753774 -4.44140625 9.2109375 C-5.48766034 7.91358243 -6.48841848 6.57826778 -7.44140625 5.2109375 C-10.99637035 4.11059147 -14.27896382 3.91287534 -17.87890625 4.8359375 C-20.0225075 6.7223066 -19.98296203 8.46027216 -20.44140625 11.2109375 C-19.37921875 11.45328125 -18.31703125 11.695625 -17.22265625 11.9453125 C0.65974533 16.1364013 0.65974533 16.1364013 5.62109375 21.3984375 C7.0052106 25.55078804 6.90511863 29.04276218 5.55859375 33.2109375 C0.54082677 38.96301185 -5.00436565 39.9381565 -12.37890625 40.5234375 C-17.62555083 40.34786081 -22.96551078 39.25752093 -27.0859375 35.8515625 C-29.75178625 32.87072874 -31.09087887 30.18358113 -31.44140625 26.2109375 C-28.39115761 25.92317819 -25.4796055 25.75682943 -22.44140625 26.2109375 C-20.50390625 28.6484375 -20.50390625 28.6484375 -19.44140625 31.2109375 C-16.85387469 32.50470328 -14.8918164 32.37926147 -12.00390625 32.3984375 C-11.03582031 32.41261719 -10.06773437 32.42679687 -9.0703125 32.44140625 C-6.20873898 32.40243201 -6.20873898 32.40243201 -3.44140625 30.2109375 C-3.30699847 27.78173885 -3.30699847 27.78173885 -4.44140625 25.2109375 C-8.14661091 23.42958911 -11.76180532 22.39620966 -15.72265625 21.31640625 C-16.86734375 20.99285156 -18.01203125 20.66929687 -19.19140625 20.3359375 C-20.82335937 19.90667969 -20.82335937 19.90667969 -22.48828125 19.46875 C-26.02660625 17.96168565 -27.40666827 16.44428597 -29.44140625 13.2109375 C-30.1779933 8.05482813 -30.10787321 6.26944385 -27.31640625 1.8359375 C-20.11894166 -4.73566061 -8.32005348 -4.87786919 0 0 Z " fill="#D9803E" transform="translate(979.44140625,468.7890625)"/>
<path d="M0 0 C2.27991332 1.77136123 3.46895045 3.55493195 4.55859375 6.2109375 C4.55859375 7.2009375 4.55859375 8.1909375 4.55859375 9.2109375 C1.52650253 9.43977457 -1.41709898 9.5753774 -4.44140625 9.2109375 C-5.48766034 7.91358243 -6.48841848 6.57826778 -7.44140625 5.2109375 C-10.99637035 4.11059147 -14.27896382 3.91287534 -17.87890625 4.8359375 C-20.0225075 6.7223066 -19.98296203 8.46027216 -20.44140625 11.2109375 C-19.37921875 11.45328125 -18.31703125 11.695625 -17.22265625 11.9453125 C0.65974533 16.1364013 0.65974533 16.1364013 5.62109375 21.3984375 C7.0052106 25.55078804 6.90511863 29.04276218 5.55859375 33.2109375 C0.54082677 38.96301185 -5.00436565 39.9381565 -12.37890625 40.5234375 C-17.62555083 40.34786081 -22.96551078 39.25752093 -27.0859375 35.8515625 C-29.75178625 32.87072874 -31.09087887 30.18358113 -31.44140625 26.2109375 C-28.39115761 25.92317819 -25.4796055 25.75682943 -22.44140625 26.2109375 C-20.50390625 28.6484375 -20.50390625 28.6484375 -19.44140625 31.2109375 C-16.85387469 32.50470328 -14.8918164 32.37926147 -12.00390625 32.3984375 C-11.03582031 32.41261719 -10.06773437 32.42679687 -9.0703125 32.44140625 C-6.20873898 32.40243201 -6.20873898 32.40243201 -3.44140625 30.2109375 C-3.30699847 27.78173885 -3.30699847 27.78173885 -4.44140625 25.2109375 C-8.14661091 23.42958911 -11.76180532 22.39620966 -15.72265625 21.31640625 C-16.86734375 20.99285156 -18.01203125 20.66929687 -19.19140625 20.3359375 C-20.82335937 19.90667969 -20.82335937 19.90667969 -22.48828125 19.46875 C-26.02660625 17.96168565 -27.40666827 16.44428597 -29.44140625 13.2109375 C-30.1779933 8.05482813 -30.10787321 6.26944385 -27.31640625 1.8359375 C-20.11894166 -4.73566061 -8.32005348 -4.87786919 0 0 Z " fill="#D9803E" transform="translate(709.44140625,468.7890625)"/>
<path d="M0 0 C2.27991332 1.77136123 3.46895045 3.55493195 4.55859375 6.2109375 C4.55859375 7.2009375 4.55859375 8.1909375 4.55859375 9.2109375 C1.52650253 9.43977457 -1.41709898 9.5753774 -4.44140625 9.2109375 C-5.48766034 7.91358243 -6.48841848 6.57826778 -7.44140625 5.2109375 C-10.99637035 4.11059147 -14.27896382 3.91287534 -17.87890625 4.8359375 C-20.0225075 6.7223066 -19.98296203 8.46027216 -20.44140625 11.2109375 C-19.37921875 11.45328125 -18.31703125 11.695625 -17.22265625 11.9453125 C0.65974533 16.1364013 0.65974533 16.1364013 5.62109375 21.3984375 C7.0052106 25.55078804 6.90511863 29.04276218 5.55859375 33.2109375 C0.54082677 38.96301185 -5.00436565 39.9381565 -12.37890625 40.5234375 C-17.62555083 40.34786081 -22.96551078 39.25752093 -27.0859375 35.8515625 C-29.75178625 32.87072874 -31.09087887 30.18358113 -31.44140625 26.2109375 C-28.39115761 25.92317819 -25.4796055 25.75682943 -22.44140625 26.2109375 C-20.50390625 28.6484375 -20.50390625 28.6484375 -19.44140625 31.2109375 C-16.85387469 32.50470328 -14.8918164 32.37926147 -12.00390625 32.3984375 C-11.03582031 32.41261719 -10.06773437 32.42679687 -9.0703125 32.44140625 C-6.20873898 32.40243201 -6.20873898 32.40243201 -3.44140625 30.2109375 C-3.30699847 27.78173885 -3.30699847 27.78173885 -4.44140625 25.2109375 C-8.14661091 23.42958911 -11.76180532 22.39620966 -15.72265625 21.31640625 C-16.86734375 20.99285156 -18.01203125 20.66929687 -19.19140625 20.3359375 C-20.82335937 19.90667969 -20.82335937 19.90667969 -22.48828125 19.46875 C-26.02660625 17.96168565 -27.40666827 16.44428597 -29.44140625 13.2109375 C-30.1779933 8.05482813 -30.10787321 6.26944385 -27.31640625 1.8359375 C-20.11894166 -4.73566061 -8.32005348 -4.87786919 0 0 Z " fill="#D9803E" transform="translate(571.44140625,468.7890625)"/>
<path d="M0 0 C2.97 0 5.94 0 9 0 C9.01401855 1.28632324 9.01401855 1.28632324 9.02832031 2.59863281 C9.07241291 5.78972679 9.13406056 8.97986756 9.20751953 12.17041016 C9.23569099 13.54951651 9.25692472 14.92878318 9.27099609 16.30810547 C9.29247545 18.29422949 9.34123132 20.27999909 9.390625 22.265625 C9.41157227 23.45961914 9.43251953 24.65361328 9.45410156 25.88378906 C10.10152115 29.57952414 11.0114626 30.79049707 14 33 C19.19971492 33.67403712 22.59611921 32.80246959 27 30 C30.7228807 26.02036891 31.10112262 22.08670127 31.31640625 16.796875 C31.35830078 15.8171875 31.40019531 14.8375 31.44335938 13.828125 C31.48267578 12.81234375 31.52199219 11.7965625 31.5625 10.75 C31.60568359 9.71875 31.64886719 8.6875 31.69335938 7.625 C31.79925682 5.0834613 31.90133443 2.54182804 32 0 C34.64 0 37.28 0 40 0 C40 13.2 40 26.4 40 40 C37.36 40 34.72 40 32 40 C31.67 39.01 31.34 38.02 31 37 C30.113125 37.66 29.22625 38.32 28.3125 39 C22.90243981 42.08516671 17.0293815 41.75177427 11 41 C7.05977541 39.74262458 4.63027821 37.84037094 2.125 34.5 C0.12706183 30.06013739 -0.11979943 26.35587449 -0.09765625 21.484375 C-0.09443359 20.23398437 -0.09121094 18.98359375 -0.08789062 17.6953125 C-0.07951172 16.39335937 -0.07113281 15.09140625 -0.0625 13.75 C-0.05798828 12.43257813 -0.05347656 11.11515625 -0.04882812 9.7578125 C-0.03704316 6.50516259 -0.02059011 3.25260416 0 0 Z " fill="#D9803E" transform="translate(1144,467)"/>
<path d="M0 0 C2.64 0 5.28 0 8 0 C8 5.28 8 10.56 8 16 C11.96 16 15.92 16 20 16 C20 18.31 20 20.62 20 23 C16.04 23 12.08 23 8 23 C8 33.89 8 44.78 8 56 C5.36 56 2.72 56 0 56 C0 45.11 0 34.22 0 23 C-3.63 23 -7.26 23 -11 23 C-11 20.69 -11 18.38 -11 16 C-7.37 16 -3.74 16 0 16 C0 10.72 0 5.44 0 0 Z " fill="#D9803E" transform="translate(587,451)"/>
<path d="M0 0 C1 1 1 1 1.09765625 3.06640625 C1.08605469 3.89011719 1.07445312 4.71382813 1.0625 5.5625 C1.05347656 6.38878906 1.04445313 7.21507812 1.03515625 8.06640625 C1.02355469 8.70449219 1.01195312 9.34257812 1 10 C-0.8253125 9.6596875 -0.8253125 9.6596875 -2.6875 9.3125 C-5.7783033 8.92956862 -6.90202344 8.95953142 -9.875 10.1875 C-12.88616201 12.75584407 -13.86183252 14.80875508 -14.31884766 18.74902344 C-14.35026855 19.77543945 -14.38168945 20.80185547 -14.4140625 21.859375 C-14.47207031 23.53193359 -14.47207031 23.53193359 -14.53125 25.23828125 C-14.57765625 26.97658203 -14.57765625 26.97658203 -14.625 28.75 C-14.68300781 30.51150391 -14.68300781 30.51150391 -14.7421875 32.30859375 C-14.8363982 35.20557268 -14.92201602 38.10254626 -15 41 C-17.97 41 -20.94 41 -24 41 C-24 27.8 -24 14.6 -24 1 C-21.03 1 -18.06 1 -15 1 C-14.67 1.99 -14.34 2.98 -14 4 C-13.566875 3.525625 -13.13375 3.05125 -12.6875 2.5625 C-9.00889754 -0.84361339 -4.69201339 -0.15135527 0 0 Z " fill="#D9803E" transform="translate(1090,466)"/>
<path d="M0 0 C2.64 0 5.28 0 8 0 C8 13.2 8 26.4 8 40 C5.36 40 2.72 40 0 40 C0 26.8 0 13.6 0 0 Z " fill="#D9803E" transform="translate(836,467)"/>
<path d="M0 0 C3 0.25 3 0.25 5 2.25 C5.25 4.75 5.25 4.75 5 7.25 C3 9.25 3 9.25 0 9.5 C-3 9.25 -3 9.25 -5 7.25 C-5.25 4.75 -5.25 4.75 -5 2.25 C-3 0.25 -3 0.25 0 0 Z " fill="#D9803E" transform="translate(840,451.75)"/>
</svg>
